# Blender 3.5.0
# www.blender.org
mtllib navicella_primapersona.mtl
o Plane.001
v 0.001210 1.223193 1.882882
v 0.000717 1.224562 1.948029
v 0.000000 1.223148 1.883076
v 0.000000 1.151978 1.919755
v 0.000000 1.111598 1.923120
v 0.000000 1.054393 1.876010
v 0.000000 0.595072 1.445291
v 0.000000 0.659007 1.297231
v 0.000000 0.669102 1.240027
v 0.000000 0.650594 1.204694
v 0.000000 0.623674 1.182822
v 0.000000 0.581612 1.194599
v 0.000000 0.527772 1.317421
v 0.000000 0.494122 1.309009
v 0.000000 0.467202 1.317421
v 0.000000 -0.355842 0.579320
v 0.000000 -0.318453 0.564131
v 0.000000 -0.313780 0.522069
v 0.000000 -0.286907 0.481174
v 0.000000 -0.268212 0.430933
v -0.000000 -0.265875 0.192580
v -0.000000 -0.250686 0.180896
v -0.000000 -0.236665 0.158696
v -0.000000 -0.206287 0.149349
v -0.000000 -0.261202 0.142338
v -0.000000 -0.261202 0.115465
v -0.000000 -0.223813 0.090929
v -0.000000 -0.215634 -0.084331
v -0.000000 -0.253023 -0.119383
v -0.000000 -0.271717 -0.120551
v -0.000000 -0.272886 -0.143919
v -0.000000 -0.206287 -0.143919
v -0.000000 -0.206287 -0.153267
v -0.000000 -0.254191 -0.161445
v -0.000000 -0.264707 -0.159109
v -0.000000 -0.267044 -0.181308
v -0.000000 -0.250686 -0.177803
v -0.000000 -0.251854 -0.187150
v -0.000000 -0.270549 -0.195329
v -0.000000 -0.263538 -0.425504
v -0.000000 -0.292749 -0.504955
v -0.000000 -0.307938 -0.517807
v -0.000000 -0.313780 -0.564543
v -0.000000 -0.327800 -0.604269
v -0.000000 0.276262 -1.175616
v -0.000000 0.299630 -1.170942
v -0.000000 0.451522 -1.315824
v -0.000000 0.506437 -1.315824
v -0.000000 0.512279 -1.333350
v -0.000000 0.530973 -1.322834
v -0.000000 0.567194 -1.223520
v -0.000000 0.604583 -1.195479
v -0.000000 0.631456 -1.197815
v -0.000000 0.651319 -1.204826
v -0.000000 0.668845 -1.242214
v -0.000000 0.659497 -1.281940
v -0.000000 0.595235 -1.436169
v -0.000000 1.110499 -1.916381
v -0.000000 1.146720 -1.907034
v -0.000000 1.166583 -1.924560
v -0.000000 1.220329 -1.891845
v -0.000000 1.220329 -1.994664
v -0.000000 0.803847 -1.997083
v -0.000000 -0.053000 -1.037046
v -0.000000 -0.061873 -1.038727
v -0.000000 -0.107206 -1.026363
v -0.000000 -0.112357 -0.986697
v -0.000000 -0.147902 -0.978970
v -0.000000 -0.159236 -0.905304
v -0.000000 -0.291113 -0.773428
v -0.000000 -0.637959 -1.054593
v -0.000000 -0.657355 -1.125906
v -0.000000 -1.060885 -1.838951
v -0.000000 -1.084925 -1.912789
v -0.000000 -1.136869 -1.929531
v -0.000000 -1.154470 -1.993495
v -0.000000 -1.215858 -1.993065
v 0.000000 -1.216908 1.997987
v 0.000000 -1.160242 1.997472
v 0.000000 -1.140151 1.931534
v 0.000000 -1.093273 1.912989
v 0.000000 -1.048455 1.764627
v 0.000000 -0.655915 1.122758
v 0.000000 -0.633764 1.051668
v 0.000000 -0.290163 0.769369
v 0.000000 -0.150043 0.920821
v 0.000000 -0.152104 0.970790
v 0.000000 -0.115013 0.989851
v 0.000000 -0.108832 1.024365
v 0.000000 -0.044954 1.044456
v 0.000000 0.805884 1.999555
v 0.000000 1.222483 1.996992
vn 1.0000 -0.0000 -0.0000
vt 0.034205 0.998855
vt 0.018214 0.998985
vt 0.034153 0.998362
vt 0.025371 0.969358
vt 0.024671 0.952889
vt 0.036404 0.929525
vt 0.143478 0.741889
vt 0.179597 0.767871
vt 0.193597 0.771952
vt 0.202321 0.764380
vt 0.207769 0.753385
vt 0.205011 0.736235
vt 0.175051 0.714354
vt 0.177219 0.700623
vt 0.175239 0.689648
vt 0.358838 0.353451
vt 0.362448 0.368692
vt 0.372751 0.370571
vt 0.382698 0.381505
vt 0.394964 0.389098
vt 0.453421 0.389896
vt 0.456240 0.396085
vt 0.461641 0.401789
vt 0.463840 0.414174
vt 0.465730 0.391770
vt 0.472322 0.391753
vt 0.478224 0.406988
vt 0.521187 0.410210
vt 0.529901 0.394936
vt 0.530246 0.387310
vt 0.535981 0.386818
vt 0.535775 0.413984
vt 0.538067 0.413978
vt 0.540222 0.394432
vt 0.539681 0.390145
vt 0.545134 0.389177
vt 0.544223 0.395851
vt 0.546520 0.395369
vt 0.548584 0.387738
vt 0.605021 0.390448
vt 0.624600 0.378482
vt 0.627799 0.372278
vt 0.639281 0.369864
vt 0.649069 0.364119
vt 0.787338 0.610144
vt 0.786119 0.619679
vt 0.821185 0.681541
vt 0.821015 0.703941
vt 0.825295 0.706312
vt 0.822658 0.713944
vt 0.798185 0.728783
vt 0.791191 0.744052
vt 0.791681 0.755012
vt 0.793339 0.763109
vt 0.802456 0.770234
vt 0.812229 0.766395
vt 0.850258 0.740083
vt 0.966449 0.949946
vt 0.964044 0.964726
vt 0.968281 0.972817
vt 0.960090 0.994761
vt 0.985309 0.994694
vt 0.987195 0.824811
vt 0.754370 0.475929
vt 0.754810 0.472308
vt 0.751918 0.453825
vt 0.742204 0.451750
vt 0.740419 0.437256
vt 0.722385 0.432681
vt 0.690447 0.378974
vt 0.760489 0.237314
vt 0.778041 0.229356
vt 0.954193 0.064294
vt 0.972379 0.054440
vt 0.976646 0.033241
vt 0.992390 0.026020
vt 0.992475 0.000981
vt 0.013531 0.003146
vt 0.013481 0.026260
vt 0.029593 0.034412
vt 0.033996 0.053521
vt 0.070248 0.071706
vt 0.226472 0.231405
vt 0.243840 0.240394
vt 0.312018 0.380365
vt 0.274434 0.437617
vt 0.262184 0.436809
vt 0.257394 0.451951
vt 0.248909 0.454495
vt 0.243783 0.480564
vt 0.006871 0.828238
vt 0.006207 0.998167
s 0
usemtl Material.001
f 1/1/1 2/2/1 92/92/1 91/91/1 90/90/1 89/89/1 88/88/1 87/87/1 86/86/1 85/85/1 84/84/1 83/83/1 82/82/1 81/81/1 80/80/1 79/79/1 78/78/1 77/77/1 76/76/1 75/75/1 74/74/1 73/73/1 72/72/1 71/71/1 70/70/1 69/69/1 68/68/1 67/67/1 66/66/1 65/65/1 64/64/1 63/63/1 62/62/1 61/61/1 60/60/1 59/59/1 58/58/1 57/57/1 56/56/1 55/55/1 54/54/1 53/53/1 52/52/1 51/51/1 50/50/1 49/49/1 48/48/1 47/47/1 46/46/1 45/45/1 44/44/1 43/43/1 42/42/1 41/41/1 40/40/1 39/39/1 38/38/1 37/37/1 36/36/1 35/35/1 34/34/1 33/33/1 32/32/1 31/31/1 30/30/1 29/29/1 28/28/1 27/27/1 26/26/1 25/25/1 24/24/1 23/23/1 22/22/1 21/21/1 20/20/1 19/19/1 18/18/1 17/17/1 16/16/1 15/15/1 14/14/1 13/13/1 12/12/1 11/11/1 10/10/1 9/9/1 8/8/1 7/7/1 6/6/1 5/5/1 4/4/1 3/3/1
