# Blender 3.5.0
# www.blender.org
mtllib navicella_primapersona.mtl
o Plane
v -0.032879 1.237424 1.547626
v -0.032879 1.170912 1.469114
v -0.032879 0.369442 1.989251
v -0.032879 -1.227657 1.993615
v -0.032879 -1.230171 -2.023458
v -0.032879 -0.144363 -2.020188
v -0.032879 -0.001362 -0.883411
v -0.032879 0.188197 -0.754194
v -0.032879 0.194848 -0.742744
v -0.032879 0.214801 -0.736202
v -0.032879 0.728607 -1.187642
v -0.032879 0.740247 -1.349570
v -0.032879 0.781816 -1.375742
v -0.032879 0.718630 -1.401912
v -0.032879 0.705328 -1.485330
v -0.032879 0.713642 -1.514771
v -0.032879 0.514106 -1.632538
v -0.032879 0.502466 -1.765026
v -0.032879 0.058499 -2.028366
v -0.032879 0.620525 -2.026730
v -0.032879 1.174237 -1.689787
v -0.032879 1.229110 -1.758483
v -0.032879 1.229110 -1.264517
v -0.032879 1.099412 -1.135300
v -0.032879 1.077795 -0.840884
v -0.032879 1.014609 -0.786907
v -0.032879 0.755211 -0.772186
v -0.032879 0.708654 -0.814713
v -0.032879 0.713642 -0.865419
v -0.032879 0.116696 -0.449963
v -0.032879 0.115034 0.330242
v -0.032879 0.720293 0.706443
v -0.032879 0.715305 0.665552
v -0.032879 0.750224 0.605032
v -0.032879 1.014609 0.605032
v -0.032879 1.071145 0.663915
v -0.032879 1.094423 0.943612
v -0.032879 1.234098 1.072828
v -0.041461 1.252160 1.530559
v -0.032879 0.486927 1.619735
v -0.032879 -0.092358 1.989838
v -0.032879 0.494626 1.500469
v -0.032879 0.689004 1.374577
v -0.032879 0.683231 1.327248
v -0.032879 0.698626 1.291279
v -0.032879 0.711137 1.278028
v -0.032879 0.790042 1.232593
v -0.032879 0.724608 1.227860
v -0.032879 0.714023 1.221233
v -0.032879 0.707287 1.052746
v -0.032879 0.219416 0.619223
v -0.032879 0.199209 0.630581
v -0.032879 0.190549 0.656139
v -0.032879 0.005794 0.784870
v -0.032879 -0.124182 1.988931
v -0.032879 -1.228709 -2.018920
vn 1.0000 0.0003 -0.0000
vt 0.088064 0.998390
vt 0.125705 0.951917
vt 0.003634 0.644280
vt 0.002483 0.003608
vt 0.999110 0.010440
vt 0.995563 0.445059
vt 0.708631 0.496472
vt 0.676705 0.572656
vt 0.673902 0.575318
vt 0.672258 0.583349
vt 0.780820 0.791120
vt 0.820199 0.796068
vt 0.826462 0.812862
vt 0.832991 0.787440
vt 0.853326 0.782212
vt 0.860469 0.785609
vt 0.889635 0.705386
vt 0.921907 0.700906
vt 0.999520 0.531231
vt 1.000179 0.720970
vt 0.901895 0.971499
vt 0.937490 0.998130
vt 0.798261 0.992937
vt 0.767144 0.940465
vt 0.695548 0.931287
vt 0.682572 0.905738
vt 0.679647 0.801182
vt 0.690114 0.782488
vt 0.702441 0.784578
vt 0.602847 0.543360
vt 0.412979 0.541451
vt 0.319893 0.784764
vt 0.329857 0.782819
vt 0.344496 0.796986
vt 0.343827 0.903529
vt 0.329354 0.926219
vt 0.261227 0.935156
vt 0.229427 0.991238
vt 0.117905 0.998101
vt 0.098223 0.689272
vt 0.003834 0.458181
vt 0.127228 0.692563
vt 0.157374 0.771095
vt 0.168906 0.768843
vt 0.177620 0.775104
vt 0.180814 0.780167
vt 0.191671 0.812037
vt 0.192989 0.785675
vt 0.194628 0.781420
vt 0.235649 0.778973
vt 0.342388 0.583057
vt 0.339674 0.574896
vt 0.333477 0.571365
vt 0.302616 0.496707
vt 0.005789 0.439478
vt 0.998828 -0.000736
s 0
usemtl Material.002
f 2/2/1 3/3/1 41/41/1 40/40/1 42/42/1 43/43/1 44/44/1 45/45/1 46/46/1 47/47/1 48/48/1 49/49/1 50/50/1 51/51/1 52/52/1 53/53/1 54/54/1 55/55/1 4/4/1 56/56/1 5/5/1 6/6/1 7/7/1 8/8/1 9/9/1 10/10/1 11/11/1 12/12/1 13/13/1 14/14/1 15/15/1 16/16/1 17/17/1 18/18/1 19/19/1 20/20/1 21/21/1 22/22/1 23/23/1 24/24/1 25/25/1 26/26/1 27/27/1 28/28/1 29/29/1 30/30/1 31/31/1 32/32/1 33/33/1 34/34/1 35/35/1 36/36/1 37/37/1 38/38/1 39/39/1 1/1/1
