# Blender 3.5.1
# www.blender.org
mtllib skybox.mtl
o Cube
v -12.626203 -12.626202 12.626204
v -12.626203 12.626204 12.626202
v -12.626203 -12.626204 -12.626202
v -12.626203 12.626202 -12.626204
v 12.626203 -12.626202 12.626204
v 12.626203 12.626204 12.626202
v 12.626203 -12.626204 -12.626202
v 12.626203 12.626202 -12.626204
vn -1.0000 -0.0000 -0.0000
vn -0.0000 -0.0000 -1.0000
vn 1.0000 -0.0000 -0.0000
vn -0.0000 -0.0000 1.0000
vn -0.0000 -1.0000 -0.0000
vn -0.0000 1.0000 -0.0000
vt 0.952442 0.340061
vt 0.217681 0.342960
vt 0.400647 0.015674
vt 0.953166 0.666621
vt 0.218406 0.669520
vt 0.402820 0.995356
vt 0.768752 0.340785
vt 0.584337 0.014949
vt 0.769476 0.667345
vt 0.586511 0.994630
vt 0.401372 0.342234
vt 0.402096 0.668795
vt 0.585061 0.341510
vt 0.585787 0.668071
s 0
usemtl Material.003
f 1/1/1 2/4/1 4/9/1 3/7/1
f 3/7/2 4/9/2 8/14/2 7/13/2
f 7/13/3 8/14/3 6/12/3 5/11/3
f 5/11/4 6/12/4 2/5/4 1/2/4
f 3/8/5 7/13/5 5/11/5 1/3/5
f 8/14/6 4/10/6 2/6/6 6/12/6
